<svg xmlns="http://www.w3.org/2000/svg" width="16" height="16" viewBox="0 0 128 128">
  <!-- Background -->
  <rect width="128" height="128" rx="16" fill="#FFFFFF" />
  
  <!-- CRT Monitor Frame -->
  <rect x="14" y="12" width="100" height="80" rx="6" fill="#D0D0D0" stroke="#909090" stroke-width="2" />
  <rect x="18" y="16" width="92" height="68" rx="4" fill="#F0F0F0" stroke="#A0A0A0" stroke-width="1" />
  
  <!-- Screen Inner Shadow -->
  <rect x="20" y="18" width="88" height="64" rx="2" fill="#F8F8F8" />
  
  <!-- Monitor Base -->
  <path d="M44 92 L84 92 L92 104 L36 104 Z" fill="#D0D0D0" stroke="#909090" stroke-width="2" />
  
  <!-- Old-Style Blue Google lowercase 'g' -->
  <g transform="translate(44, 20)">
    <svg width="36.602" height="59.493" viewBox="0 0 36.602 59.493" xmlns="http://www.w3.org/2000/svg"><g id="svgGroup" stroke-linecap="round" fill-rule="evenodd" font-size="9pt" stroke="#0077ff" stroke-width="0.25mm" fill="#0077ff" style="stroke:#0077ff;stroke-width:0.25mm;fill:#0077ff"><path d="M 5.82 39.609 L 5.82 39.258 A 7.5 7.5 0 0 1 3.955 37.593 A 9.286 9.286 0 0 1 3.34 36.738 Q 2.318 35.139 2.305 32.797 A 10.896 10.896 0 0 1 2.305 32.734 A 7.526 7.526 0 0 1 2.814 29.94 A 7.047 7.047 0 0 1 3.75 28.281 A 17.685 17.685 0 0 1 4.931 26.868 Q 5.798 25.939 6.68 25.313 L 6.68 25 A 12.078 12.078 0 0 1 4.739 23.062 Q 3.882 21.997 3.125 20.645 A 12.335 12.335 0 0 1 1.627 15.71 A 15.195 15.195 0 0 1 1.563 14.297 A 15.838 15.838 0 0 1 2.024 10.393 A 12.592 12.592 0 0 1 3.594 6.719 Q 5.625 3.516 9.004 1.758 A 15.742 15.742 0 0 1 16.155 0.002 A 18.284 18.284 0 0 1 16.406 0 A 16.978 16.978 0 0 1 18.216 0.093 A 13.691 13.691 0 0 1 19.512 0.293 A 17.41 17.41 0 0 1 20.688 0.576 Q 21.399 0.774 21.992 1.016 L 35.938 1.016 L 35.938 5.859 L 27.539 5.859 A 10.498 10.498 0 0 1 29.196 7.971 A 13.542 13.542 0 0 1 30 9.531 A 11.762 11.762 0 0 1 30.965 13.807 A 13.698 13.698 0 0 1 30.977 14.375 A 15.763 15.763 0 0 1 30.537 18.176 A 12.453 12.453 0 0 1 29.043 21.758 Q 27.109 24.883 23.809 26.582 A 15.432 15.432 0 0 1 17.978 28.216 A 18.744 18.744 0 0 1 16.406 28.281 A 13.742 13.742 0 0 1 13.979 28.058 A 15.803 15.803 0 0 1 13.34 27.93 A 13.511 13.511 0 0 1 10.736 27.075 A 12.414 12.414 0 0 1 10.391 26.914 Q 9.297 27.813 8.516 28.945 A 4.307 4.307 0 0 0 7.849 30.552 A 6.046 6.046 0 0 0 7.734 31.758 Q 7.734 33.75 9.238 34.981 Q 10.453 35.974 13.363 36.165 A 22.662 22.662 0 0 0 14.844 36.211 L 22.734 36.211 A 33.776 33.776 0 0 1 26.369 36.393 Q 30.277 36.818 32.687 38.23 A 9.307 9.307 0 0 1 33.145 38.516 A 7.505 7.505 0 0 1 36.436 43.714 A 11.839 11.839 0 0 1 36.602 45.742 A 10.585 10.585 0 0 1 34.598 51.924 A 13.394 13.394 0 0 1 34.141 52.539 Q 31.68 55.664 27.168 57.578 A 23.192 23.192 0 0 1 21.928 59.072 Q 19.576 59.466 16.918 59.491 A 38.363 38.363 0 0 1 16.563 59.492 A 32.376 32.376 0 0 1 11.797 59.162 Q 7.57 58.532 4.57 56.699 A 10.188 10.188 0 0 1 1.808 54.296 Q 0.141 52.159 0.011 49.216 A 11.423 11.423 0 0 1 0 48.711 A 8.685 8.685 0 0 1 1.305 44.155 A 10.624 10.624 0 0 1 1.563 43.75 A 14.039 14.039 0 0 1 4.173 40.847 A 17.646 17.646 0 0 1 5.82 39.609 Z M 22.148 41.523 L 15 41.523 Q 13.906 41.523 12.539 41.387 A 18.265 18.265 0 0 1 9.805 40.898 A 12.693 12.693 0 0 0 8.205 42.181 Q 7.175 43.164 6.582 44.258 Q 5.586 46.094 5.586 47.891 A 5.622 5.622 0 0 0 7.649 52.333 A 8.385 8.385 0 0 0 8.711 53.106 Q 11.836 55.039 17.383 55.039 Q 21.12 55.039 23.911 53.953 A 13.055 13.055 0 0 0 24.219 53.828 A 14.31 14.31 0 0 0 26.428 52.681 Q 27.658 51.891 28.534 50.909 A 8.737 8.737 0 0 0 28.711 50.703 Q 30.313 48.789 30.313 46.641 Q 30.313 43.75 28.262 42.637 Q 26.402 41.627 22.89 41.533 A 27.644 27.644 0 0 0 22.148 41.523 Z M 16.406 24.023 Q 20 24.023 22.617 21.387 A 8.806 8.806 0 0 0 25.004 16.781 A 12.748 12.748 0 0 0 25.234 14.297 Q 25.234 9.975 22.871 7.447 A 8.169 8.169 0 0 0 22.637 7.207 A 8.558 8.558 0 0 0 16.463 4.649 A 10.266 10.266 0 0 0 16.406 4.648 A 8.671 8.671 0 0 0 12.563 5.492 A 8.672 8.672 0 0 0 10.195 7.207 A 8.42 8.42 0 0 0 8.013 11.176 Q 7.679 12.509 7.658 14.086 A 15.927 15.927 0 0 0 7.656 14.297 A 12.365 12.365 0 0 0 8.006 17.322 A 8.7 8.7 0 0 0 10.254 21.387 A 8.903 8.903 0 0 0 13.091 23.364 A 8.327 8.327 0 0 0 16.406 24.023 Z" vector-effect="non-scaling-stroke"/></g></svg>
  </g>
  
  <!-- CRT Screen Scan Lines (subtle effect) -->
  <rect x="20" y="18" width="88" height="64" rx="2" fill="url(#scanlines)" opacity="0.05" />
  
  <!-- CRT Reflection Highlight -->
  <path d="M20 18 L108 18 L105 22 L23 22 Z" fill="#FFFFFF" opacity="0.3" />
  
  <!-- Monitor Control Lights -->
  <circle cx="28" cy="88" r="2" fill="#34A853" />
  <circle cx="36" cy="88" r="2" fill="#EA4335" />
  
  <!-- Define scan line pattern -->
  <defs>
    <pattern id="scanlines" patternUnits="userSpaceOnUse" width="4" height="4" patternTransform="rotate(0)">
      <rect width="4" height="2" fill="#000000" opacity="0.3" />
    </pattern>
  </defs>
</svg>